<svg version="1.0" xmlns="http://www.w3.org/2000/svg"
 width="1389.000000pt" height="1017.000000pt" viewBox="0 0 1389.000000 1017.000000"
 preserveAspectRatio="xMidYMid meet">
<g transform="translate(0.000000,1017.000000) scale(0.100000,-0.100000)"
fill="#ffffff" stroke="none">
<path d="M4878 9917 c-425 -784 -589 -1414 -502 -1927 53 -311 188 -561 425
-783 50 -48 96 -87 100 -87 5 0 9 -88 9 -196 l0 -197 46 7 c25 3 50 8 55 12 5
3 9 87 9 187 l0 182 41 30 c70 51 218 214 284 315 258 387 298 873 124 1482
-75 260 -180 516 -338 823 -110 214 -152 287 -166 292 -6 1 -45 -61 -87 -140z"/>
<path d="M6000 1969 c-150 -12 -264 -50 -397 -130 -116 -70 -198 -163 -268
-304 -65 -130 -93 -231 -103 -377 -19 -278 32 -516 151 -701 53 -80 182 -188
292 -241 140 -69 226 -86 433 -86 221 0 321 22 525 117 l77 36 0 214 0 213
-29 0 c-20 0 -44 -13 -77 -44 -218 -195 -447 -246 -651 -144 -100 50 -207 196
-237 327 -20 86 -14 355 9 431 41 135 140 256 248 305 191 88 360 49 613 -141
44 -33 82 -54 98 -54 l26 0 0 218 0 217 -88 37 c-221 96 -397 126 -622 107z"/>
<path d="M2 1288 c3 -590 5 -659 21 -713 64 -213 228 -365 462 -425 113 -29
416 -29 531 0 117 29 215 82 293 156 74 69 115 136 152 249 l24 70 3 658 3
657 -226 0 -225 0 0 -591 c0 -648 -3 -682 -60 -772 -54 -85 -193 -125 -319
-93 -77 20 -113 44 -146 99 -52 90 -55 122 -55 765 l0 592 -230 0 -231 0 3
-652z"/>
<path d="M1820 1050 l0 -890 368 0 c405 0 525 10 658 55 254 85 438 274 528
545 78 235 49 546 -70 752 -94 161 -206 268 -348 331 -186 82 -311 97 -793 97
l-343 0 0 -890z m850 499 c107 -52 166 -108 207 -197 43 -93 63 -184 63 -292
0 -229 -73 -395 -216 -486 -72 -46 -139 -61 -301 -69 l-143 -6 0 548 0 548
158 -5 c155 -5 158 -6 232 -41z"/>
<path d="M4062 1913 c-89 -249 -144 -412 -152 -448 -5 -25 -40 -129 -76 -232
-168 -480 -354 -1036 -354 -1062 0 -8 60 -11 226 -9 l226 3 39 125 c21 69 46
149 55 178 l15 52 274 0 273 0 6 -22 c4 -13 14 -50 22 -83 9 -33 29 -104 46
-158 l30 -97 240 0 c132 0 238 4 236 8 -1 4 -42 125 -91 268 -48 142 -119 353
-158 469 -39 116 -133 395 -209 620 l-139 410 -249 3 -250 2 -10 -27z m372
-900 l53 -163 -173 0 -172 0 13 38 c24 65 123 386 128 417 3 17 11 44 17 60
12 29 13 27 47 -80 19 -60 58 -183 87 -272z"/>
<path d="M6950 1050 l0 -890 230 0 230 0 0 390 0 390 295 0 295 0 0 -390 0
-390 230 0 230 0 0 890 0 890 -230 0 -230 0 0 -322 0 -323 -295 0 -295 0 0
323 0 322 -230 0 -230 0 0 -890z"/>
<path d="M8740 1780 l0 -160 125 0 125 0 0 -570 0 -570 -125 0 -125 0 0 -160
0 -160 480 0 480 0 0 160 0 160 -125 0 -125 0 0 570 0 570 125 0 125 0 0 160
0 160 -480 0 -480 0 0 -160z"/>
<path d="M10740 1050 l0 -891 468 3 c451 4 470 5 542 27 93 28 171 69 246 129
118 96 169 216 168 392 0 81 -5 118 -22 163 -44 121 -140 211 -261 245 l-64
18 52 33 c205 132 251 460 87 624 -41 41 -175 109 -251 127 -34 9 -198 14
-507 17 l-458 5 0 -892z m764 525 c30 -14 44 -31 64 -73 22 -49 23 -59 14
-108 -24 -115 -72 -144 -257 -152 l-125 -5 0 183 0 182 133 -4 c102 -3 141 -8
171 -23z m71 -669 c134 -57 169 -238 65 -337 -55 -53 -125 -69 -298 -69 l-142
0 0 213 0 212 177 -5 c98 -3 187 -10 198 -14z"/>
<path d="M12201 1933 c0 -5 18 -35 39 -68 21 -33 82 -134 136 -225 120 -205
299 -507 382 -645 l63 -105 -1 -365 0 -365 230 0 230 0 0 366 0 367 32 56 c17
31 58 97 89 148 32 50 75 122 95 160 39 72 48 88 230 388 133 220 164 274 164
286 0 5 -112 9 -249 9 l-249 0 -77 -142 c-43 -79 -89 -162 -102 -185 -13 -24
-20 -43 -16 -43 4 0 4 -4 -2 -8 -5 -4 -37 -59 -70 -123 l-59 -116 -53 91 c-29
50 -80 143 -114 206 -34 63 -87 161 -117 218 l-57 102 -262 0 c-145 0 -263 -3
-262 -7z"/>
<path d="M9970 400 l0 -240 215 0 215 0 0 240 0 240 -215 0 -215 0 0 -240z"/>
</g>
<g transform="translate(0.000000,1017.000000) scale(0.100000,-0.100000)"
fill="#ffffff" stroke="none">
<path d="M6237 9878 l-327 -293 0 -1342 c0 -739 -4 -1343 -8 -1343 -53 0 -577
-101 -752 -145 -52 -13 -111 -27 -130 -30 -88 -15 -684 -214 -913 -305 l-207
-82 5 -52 c3 -28 12 -145 20 -260 9 -115 17 -211 19 -213 2 -2 26 2 55 9 l51
11 66 206 c36 113 77 243 92 288 22 71 29 83 51 87 14 3 179 6 366 8 l340 3
65 -183 65 -183 35 3 35 3 3 203 2 202 789 0 c433 0 963 -3 1178 -7 l390 -6
-5 -119 c-5 -115 -4 -118 17 -118 20 0 21 4 21 120 l0 120 28 -5 c15 -3 225
-7 467 -10 320 -3 527 -11 757 -28 175 -13 320 -25 322 -28 2 -2 0 -62 -5
-133 -6 -71 -9 -143 -7 -159 l3 -30 205 -38 c113 -20 206 -36 208 -35 1 2 7
84 14 184 l12 182 28 0 c15 0 154 -9 309 -20 155 -11 284 -19 286 -16 6 6 -48
29 -244 107 l-163 64 0 340 0 340 -543 543 -542 542 -728 0 -727 0 -1 663 0
662 -325 290 c-179 160 -331 291 -337 293 -7 1 -160 -129 -340 -290z"/>
<path d="M10590 6498 c0 -24 7 -68 16 -98 57 -193 242 -291 553 -291 216 1
332 48 409 169 27 41 62 142 62 178 0 7 -37 14 -107 18 -60 4 -134 9 -165 13
l-57 5 -7 -38 c-10 -56 -40 -111 -71 -131 -40 -26 -176 -25 -222 2 -52 31 -72
64 -78 132 l-6 60 -106 7 c-58 4 -132 9 -163 13 l-58 6 0 -45z"/>
<path d="M5402 5913 c3 -312 5 -331 26 -384 47 -118 125 -191 247 -231 61 -20
88 -23 220 -22 109 1 175 7 243 21 l92 20 0 -268 0 -269 185 0 185 0 0 730 0
730 -185 0 -185 0 0 -329 0 -329 -36 -7 c-74 -13 -237 -8 -282 10 -54 22 -107
83 -121 140 -6 26 -11 141 -11 279 l0 236 -191 0 -190 0 3 -327z"/>
<path d="M6917 5973 c-4 -148 -10 -476 -13 -729 l-7 -462 182 -7 c100 -4 184
-6 186 -4 2 2 7 149 11 327 6 274 9 322 21 317 8 -3 117 -5 243 -5 l229 0 -6
-325 -6 -325 186 0 c143 0 187 3 187 13 3 61 27 1442 26 1444 -1 1 -85 3 -187
5 l-186 3 -5 -263 c-3 -144 -7 -264 -9 -265 -2 -2 -111 -1 -242 1 l-238 4 3
263 3 263 -50 6 c-27 3 -111 6 -186 6 l-136 0 -6 -267z"/>
<path d="M8520 6174 c0 -22 -23 -349 -49 -729 -27 -379 -48 -691 -47 -692 1
-1 130 -11 286 -23 437 -31 525 -27 646 31 171 81 266 255 251 460 -8 105 -39
182 -100 246 -107 114 -180 135 -584 169 -57 5 -63 8 -62 27 0 12 8 132 18
267 11 148 14 247 9 251 -5 3 -67 9 -136 13 -70 4 -151 10 -179 13 l-53 6 0
-39z m470 -825 c165 -16 222 -57 228 -162 4 -74 -16 -120 -67 -154 -55 -37
-104 -45 -225 -38 l-111 7 12 162 c6 88 12 169 12 179 1 20 12 21 151 6z"/>
<path d="M4508 6193 l-108 -4 -69 -217 c-39 -119 -142 -444 -231 -722 -88
-278 -162 -509 -164 -515 -7 -19 -15 41 -22 159 l-6 119 -68 -5 -68 -5 -6 61
c-3 34 -22 295 -42 581 -20 286 -38 522 -40 524 -5 5 -953 -57 -995 -65 l-27
-5 -5 -302 c-4 -241 -9 -328 -26 -432 -24 -148 -64 -312 -95 -394 l-22 -56
-47 -3 c-28 -2 -47 -8 -47 -15 0 -33 42 -602 45 -605 3 -3 339 18 341 22 0 0
-5 75 -12 166 -6 91 -11 166 -9 168 4 4 789 59 794 55 2 -2 9 -76 15 -165 l11
-163 70 2 c39 0 117 4 174 8 l103 7 -6 67 c-3 36 -8 109 -12 162 l-7 96 188 6
c103 3 190 8 192 11 3 2 24 69 47 148 l42 143 224 3 225 2 45 -142 46 -143
192 -3 c148 -2 192 0 192 10 0 7 -116 336 -257 730 l-257 718 -95 -2 c-53 -1
-144 -4 -203 -5z m-1174 -355 c3 -13 17 -209 32 -436 21 -315 25 -415 16 -421
-7 -4 -101 -13 -209 -19 -109 -7 -219 -15 -245 -19 l-47 -5 30 92 c64 200 109
484 109 693 0 86 3 109 15 113 16 6 170 20 247 23 42 1 48 -2 52 -21z m1346
-304 c39 -115 70 -214 70 -221 0 -10 -33 -13 -138 -13 l-139 0 66 225 c36 123
67 223 68 221 2 -2 35 -97 73 -212z"/>
<path d="M9727 5423 c-26 -384 -50 -712 -53 -729 l-4 -31 185 -13 c102 -7 187
-11 189 -9 2 2 25 306 50 674 26 369 49 695 52 726 l6 55 -173 12 c-96 7 -181
12 -189 12 -13 0 -22 -100 -63 -697z"/>
<path d="M10440 6039 c0 -19 -22 -347 -49 -729 -27 -382 -48 -696 -47 -697 5
-5 327 -25 338 -20 7 2 148 203 313 445 165 242 301 439 302 438 2 -2 -11
-208 -29 -459 -18 -251 -29 -459 -25 -463 10 -10 351 -32 357 -23 8 12 105
1438 98 1445 -6 6 -380 36 -383 31 -15 -24 -559 -806 -561 -804 -1 1 12 186
28 411 16 225 27 415 24 421 -3 8 -47 14 -128 19 -67 4 -149 9 -180 13 l-58 6
0 -34z"/>
<path d="M2279 5389 c-228 -173 -559 -453 -559 -472 0 -5 19 2 43 16 104 61
343 186 473 247 91 44 144 75 148 87 9 31 37 215 33 219 -2 3 -64 -41 -138
-97z"/>
<path d="M11880 5246 l0 -63 63 -33 c80 -43 319 -184 375 -223 24 -16 46 -27
48 -24 12 12 -449 407 -475 407 -7 0 -11 -24 -11 -64z"/>
<path d="M5477 4264 c-76 -18 -155 -70 -201 -132 -20 -28 -61 -104 -91 -170
-101 -223 -135 -265 -227 -282 l-38 -7 0 261 c0 143 -3 277 -6 296 l-6 35
-181 -3 c-100 -2 -183 -5 -185 -6 -1 -2 3 -330 10 -730 l12 -726 189 0 189 0
-7 295 -8 295 44 0 44 0 197 -288 197 -288 388 1 387 0 45 148 44 147 226 -2
225 -3 45 -147 44 -148 195 0 c151 0 193 3 190 13 -3 6 -115 337 -249 735
l-244 722 -201 0 -202 0 -46 -132 c-25 -73 -133 -390 -239 -704 l-192 -572
-241 343 -242 344 25 23 c14 13 56 86 93 163 37 77 81 152 97 168 35 32 80 47
145 47 l48 0 0 160 0 160 -107 -1 c-60 0 -134 -7 -166 -15z m1093 -654 c34
-113 65 -211 67 -217 4 -10 -27 -13 -137 -13 -131 0 -142 1 -138 18 29 106
134 430 139 424 3 -4 34 -99 69 -212z"/>
<path d="M7210 4272 c0 -4 117 -252 259 -552 l258 -545 -23 -22 c-45 -41 -182
-52 -335 -27 l-36 6 -6 -158 c-3 -88 -3 -161 -1 -163 3 -3 100 -5 217 -6 200
0 215 1 267 23 30 13 76 39 102 58 91 68 91 68 531 1074 l125 285 -87 8 c-47
4 -135 6 -195 5 l-109 -3 -131 -322 c-72 -177 -133 -324 -136 -327 -3 -3 -71
144 -150 325 -79 182 -148 332 -154 334 -23 7 -396 13 -396 7z"/>
<path d="M8746 4238 c-7 -24 -76 -1441 -71 -1447 9 -8 355 -24 363 -17 3 4 13
146 22 316 9 171 19 312 21 315 3 2 110 -1 238 -7 175 -9 234 -15 238 -25 3
-7 -2 -151 -11 -319 -9 -169 -16 -308 -14 -309 8 -8 364 -22 368 -15 7 11 82
1442 76 1448 -3 2 -85 9 -182 14 -128 7 -178 7 -183 -1 -4 -6 -13 -125 -20
-263 -7 -139 -13 -254 -14 -255 -4 -4 -476 23 -481 27 -2 3 2 113 10 245 7
132 13 250 14 261 0 21 -5 22 -147 28 -82 4 -165 9 -185 12 -27 4 -39 2 -42
-8z"/>
<path d="M3745 4220 c-112 -11 -167 -26 -270 -75 -185 -88 -305 -251 -351
-475 -23 -113 -15 -341 15 -455 70 -265 240 -434 494 -490 63 -14 109 -16 225
-12 171 6 243 23 396 95 l99 46 -7 126 c-3 69 -6 149 -6 178 0 48 -2 52 -23
52 -14 0 -39 -16 -62 -41 -54 -55 -172 -133 -237 -155 -75 -27 -195 -24 -270
5 -111 43 -197 150 -235 292 -23 90 -23 265 1 344 36 121 102 207 190 250 146
71 321 40 494 -89 69 -51 116 -62 108 -23 -3 12 -8 93 -12 179 l-6 157 -77 30
c-142 54 -305 76 -466 61z"/>
<path d="M10146 4113 c-3 -21 -8 -84 -12 -140 l-6 -102 33 -5 c19 -3 115 -11
214 -17 99 -6 180 -12 181 -13 1 0 -16 -239 -37 -531 -21 -291 -38 -555 -38
-586 l-1 -56 181 -12 c100 -6 183 -10 185 -9 2 2 21 264 44 583 22 318 42 580
44 582 2 3 98 -3 212 -11 115 -8 209 -14 210 -13 3 3 24 280 21 283 -3 3
-1162 84 -1199 84 -23 0 -27 -5 -32 -37z"/>
<path d="M2586 4114 c-77 -8 -140 -15 -142 -17 -1 -1 -98 -202 -215 -445
l-214 -444 -37 422 c-20 232 -38 423 -40 424 -2 1 -84 -5 -183 -13 l-180 -16
3 -40 c10 -154 123 -1409 126 -1413 5 -4 274 16 317 24 24 5 48 50 255 490
198 419 230 481 236 457 4 -15 23 -221 44 -458 20 -236 38 -432 40 -434 5 -6
352 24 359 31 3 3 -23 328 -58 724 l-63 719 -54 1 c-30 1 -118 -4 -194 -12z"/>
<path d="M11570 4022 c0 -5 -34 -329 -75 -722 -42 -392 -74 -715 -71 -717 6
-6 975 -107 980 -102 5 5 34 273 30 278 -1 1 -138 17 -303 35 -165 17 -302 33
-305 36 -6 6 29 338 36 345 3 3 130 -8 283 -25 154 -16 280 -28 281 -27 4 5
27 277 23 281 -2 2 -125 16 -274 31 -148 15 -274 31 -278 35 -4 4 -2 60 4 124
l12 118 36 -5 c92 -14 571 -60 576 -56 6 7 36 271 31 276 -4 4 -929 103 -963
103 -13 0 -23 -4 -23 -8z"/>
<path d="M651 3907 l-483 -61 6 -50 c46 -376 19 -810 -68 -1096 -12 -42 -16
-45 -54 -51 -23 -3 -45 -9 -49 -13 -8 -7 62 -594 72 -604 10 -10 327 31 331
43 3 7 -4 81 -15 166 -11 84 -18 156 -15 158 5 5 786 102 790 98 1 -1 10 -71
20 -154 10 -84 21 -158 25 -165 6 -9 43 -8 166 6 87 10 161 22 166 25 4 4 -10
144 -30 310 l-38 303 -66 -7 c-64 -7 -67 -6 -72 17 -3 12 -36 274 -73 581
l-68 557 -31 -1 c-16 -1 -248 -29 -514 -62z m210 -284 c0 -10 24 -208 53 -440
28 -233 50 -423 47 -423 -4 0 -116 -14 -250 -30 -134 -17 -246 -29 -248 -27
-2 2 8 49 22 104 47 189 67 369 69 641 l1 157 130 16 c174 22 175 22 176 2z"/>
<path d="M12826 3878 c-10 -32 -176 -1432 -170 -1437 6 -6 357 -51 362 -46 2
2 16 105 32 230 15 124 30 228 33 231 3 3 48 0 99 -7 154 -20 270 -16 362 15
236 80 354 260 344 525 -3 91 -8 114 -32 164 -54 112 -179 203 -330 242 -32 8
-188 30 -345 50 -157 19 -301 37 -319 40 -22 4 -34 2 -36 -7z m466 -332 c169
-30 237 -112 208 -249 -15 -73 -45 -117 -100 -145 -41 -22 -54 -23 -163 -19
-65 2 -119 6 -121 8 -2 2 8 97 23 212 l25 207 26 0 c14 -1 60 -7 102 -14z"/>
</g>
</svg>
